<?xml version="1.0" encoding="UTF-8"?>
<svg width="84px" height="79px" viewBox="0 0 84 79" version="1.1" xmlns="http://www.w3.org/2000/svg" xmlns:xlink="http://www.w3.org/1999/xlink">
    <title>Slice 1</title>
    <g id="Page-1" stroke="none" stroke-width="1" fill="none" fill-rule="evenodd">
        <g id="XTVCDAI--big" transform="translate(28.000000, 23.000000)">
            <circle id="Oval" fill="#F0F3FA" cx="28" cy="28" r="28"></circle>
            <polygon id="Path" fill="#FFCE45" fill-rule="nonzero" points="10.959 28 28 32.869 45.041 28 28 45.041"></polygon>
            <path d="M10.959,28 L28,32.869 L45.041,28 L28,10.959 L10.959,28 Z M28,23.131 L24.348,27 L17.045,27 L28,15.22 L38.955,27 L31.652,27 L28,23.131 Z" id="Shape" fill="#FEBE44"></path>
            <polygon id="Path" fill="#000000" fill-rule="nonzero" opacity="0.05" points="28 45.041 28 10.96 45.041 28"></polygon>
        </g>
        <g id="eth">
            <circle id="Oval" stroke="#FFFFFF" stroke-width="2" fill="#627EEA" cx="28" cy="28" r="27"></circle>
            <polygon id="Path" fill-opacity="0.6" fill="#FFFFFF" fill-rule="nonzero" points="28 8 28 22.783 40.5 28.367"></polygon>
            <polygon id="Path" fill="#FFFFFF" fill-rule="nonzero" points="28 8 15.5 28.367 28 22.783"></polygon>
            <polygon id="Path" fill-opacity="0.6" fill="#FFFFFF" fill-rule="nonzero" points="28 37.95 28 48 40.5 30.7"></polygon>
            <polygon id="Path" fill="#FFFFFF" fill-rule="nonzero" points="28 48 28 37.95 15.5 30.7"></polygon>
            <polygon id="Path" fill-opacity="0.2" fill="#FFFFFF" fill-rule="nonzero" points="28 35.617 40.5 28.367 28 22.783 28 35.617"></polygon>
            <polygon id="Path" fill-opacity="0.6" fill="#FFFFFF" fill-rule="nonzero" points="15.5 28.367 28 35.617 28 22.783"></polygon>
        </g>
    </g>
</svg>